<svg width="142" height="100" xmlns="http://www.w3.org/2000/svg" fill="none">
 <g>
  <title>Layer 1</title>
  <path d="m111.518,10.0108l-79.6452,0l0,79.9807l79.6452,0l0,-79.9807z" fill="#CF191A" id="svg_1"/>
  <path d="m71.6967,100c27.4985,0 49.7903,-22.3858 49.7903,-50c0,-27.6142 -22.2918,-50 -49.7903,-50c-27.4986,0 -49.7905,22.3858 -49.7905,50c0,27.6142 22.2919,50 49.7905,50z" fill="#CF191A" id="svg_2"/>
  <path d="m29.0883,55.7685l-3.3245,0c-0.1095,0.0206 -0.2223,0.0141 -0.3288,-0.019c-0.1064,-0.033 -0.2032,-0.0916 -0.2819,-0.1707c-0.0788,-0.0791 -0.1371,-0.1763 -0.1701,-0.2832c-0.0329,-0.1068 -0.0393,-0.2201 -0.0188,-0.3301l0,-14.4269c-0.0205,-0.1099 -0.0141,-0.2232 0.0188,-0.3301c0.033,-0.1068 0.0913,-0.204 0.1701,-0.2831c0.0787,-0.0791 0.1755,-0.1377 0.2819,-0.1708c0.1065,-0.033 0.2193,-0.0395 0.3288,-0.0189l2.3051,0c0.2508,-0.0146 0.5012,0.0328 0.7295,0.138c0.2282,0.1052 0.4273,0.265 0.5798,0.4654l4.2994,4.9302l0,-4.7424c-0.0206,-0.11 -0.0141,-0.2233 0.0188,-0.3301c0.033,-0.1069 0.0913,-0.2041 0.1701,-0.2832c0.0787,-0.0791 0.1755,-0.1377 0.2819,-0.1707c0.1064,-0.0331 0.2193,-0.0396 0.3288,-0.0189l3.3245,0c0.1094,-0.0207 0.2223,-0.0142 0.3287,0.0189c0.1064,0.033 0.2032,0.0916 0.2819,0.1707c0.0788,0.0791 0.1372,0.1763 0.1701,0.2832c0.0329,0.1068 0.0394,0.2201 0.0188,0.3301l0,14.4269c0.0206,0.1099 0.0141,0.2232 -0.0188,0.3301c-0.0329,0.1069 -0.0913,0.204 -0.1701,0.2831c-0.0787,0.0791 -0.1755,0.1377 -0.2819,0.1708c-0.1064,0.033 -0.2193,0.0395 -0.3287,0.0189l-3.3245,0c-0.1095,0.0206 -0.2224,0.0141 -0.3288,-0.0189c-0.1064,-0.0331 -0.2032,-0.0917 -0.2819,-0.1708c-0.0788,-0.0791 -0.1371,-0.1762 -0.1701,-0.2831c-0.0329,-0.1069 -0.0394,-0.2202 -0.0188,-0.3301l0,-2.7257l-3.7898,-4.6087l0,7.3461c0.0206,0.11 0.0141,0.2233 -0.0188,0.3301c-0.0329,0.1069 -0.0913,0.2041 -0.1701,0.2832c-0.0787,0.0791 -0.1755,0.1377 -0.2819,0.1707c-0.1064,0.0331 -0.2193,0.0396 -0.3287,0.019l0,0z" fill="white" id="svg_4"/>
  <path d="m132.80199,24.9683l-123.17246,0c-5.04211,0 -9.12954,4.1047 -9.12954,9.168l0,34.317c0,5.0634 4.08743,9.168 9.12954,9.168l123.17246,0c5.042,0 9.13,-4.1046 9.13,-9.168l0,-34.317c0,-5.0633 -4.088,-9.168 -9.13,-9.168z" fill="#07bfbf" id="svg_3"/>
  <path d="m54.5832,72.6793c-0.7014,-0.1926 -1.0614,-0.2935 -1.7675,-0.5048c-0.1129,-0.0243 -0.2137,-0.0874 -0.2852,-0.1784c-0.0239,-0.0461 -0.0375,-0.0969 -0.0399,-0.1487c-0.0024,-0.0519 0.0064,-0.1037 0.0259,-0.1518l1.9544,-6.3789c0.0113,-0.0483 0.0319,-0.094 0.0608,-0.1343c0.0289,-0.0403 0.0655,-0.0744 0.1076,-0.1005c0.0969,-0.0383 0.2047,-0.0383 0.3016,0c1.2274,0.371 1.8469,0.5377 3.0907,0.8358c0.9188,0.2207 1.5126,0.533 1.7838,0.965c0.2739,0.4591 0.3578,1.0078 0.2338,1.5283l-0.2502,1.2937c-0.0387,0.2654 -0.1323,0.5197 -0.2749,0.7465c-0.1425,0.2269 -0.3308,0.4212 -0.5527,0.5705c-0.4442,0.2888 -1.1689,0.3264 -2.1836,0.0846c-0.512,-0.1221 -0.7668,-0.1879 -1.2765,-0.3217l-0.4325,1.6552c-0.0083,0.0513 -0.0277,0.1001 -0.0568,0.1431c-0.029,0.043 -0.0671,0.0791 -0.1115,0.1057c-0.107,0.0344 -0.2225,0.0311 -0.3273,-0.0093zm1.7744,-5.205c-0.1566,0.601 -0.2337,0.9015 -0.3927,1.5026c0.3881,0.1033 0.5821,0.1526 0.9702,0.2465c0.0724,0.0293 0.1511,0.0399 0.2287,0.0309c0.0775,-0.009 0.1517,-0.0374 0.2155,-0.0826c0.0891,-0.0857 0.151,-0.196 0.1777,-0.3169l0.1239,-0.533c0.0287,-0.1196 0.023,-0.245 -0.0164,-0.3615c-0.0397,-0.1151 -0.1613,-0.1972 -0.3623,-0.2465c-0.3671,-0.0939 -0.5682,-0.1409 -0.9446,-0.2395z" fill="white" id="svg_10"/>
  <path d="m60.4747,73.9705c-0.1151,-0.0077 -0.2234,-0.0579 -0.3039,-0.1409c-0.0289,-0.0428 -0.0483,-0.0914 -0.0567,-0.1425c-0.0085,-0.0511 -0.0059,-0.1034 0.0076,-0.1533c0.0842,-0.4836 0.1263,-0.7231 0.2128,-1.2067c0.0038,-0.0515 0.0185,-0.1016 0.0431,-0.1469c0.0246,-0.0454 0.0585,-0.0849 0.0995,-0.1161c0.1012,-0.0484 0.2161,-0.0601 0.325,-0.0329c0.4465,0.0775 0.6686,0.1127 1.1151,0.1808c0.2058,-1.3687 0.3086,-2.0543 0.512,-3.423c-0.4208,-0.0634 -0.6312,-0.0963 -1.052,-0.169c-0.1068,-0.0076 -0.2065,-0.0564 -0.2782,-0.1362c-0.0261,-0.0437 -0.0431,-0.0922 -0.0499,-0.1426c-0.0068,-0.0505 -0.0034,-0.1018 0.0101,-0.1509c0.0842,-0.493 0.1286,-0.7372 0.2151,-1.2279c0.0038,-0.0507 0.0178,-0.1001 0.0411,-0.1453c0.0233,-0.0452 0.0555,-0.0852 0.0945,-0.1176c0.0445,-0.0259 0.0937,-0.0426 0.1447,-0.0491c0.051,-0.0064 0.1028,-0.0025 0.1522,0.0115c1.7488,0.2958 2.6278,0.4085 4.3883,0.5658c0.1038,-0.0001 0.2035,0.0403 0.2782,0.1127c0.059,0.0838 0.0826,0.1876 0.0655,0.2888c-0.0398,0.4977 -0.0608,0.7442 -0.1006,1.242c0.0001,0.0511 -0.0101,0.1017 -0.0297,0.1489c-0.0197,0.0471 -0.0485,0.0899 -0.0848,0.1258c-0.0889,0.0587 -0.197,0.0806 -0.3016,0.061c-0.4162,-0.0352 -0.6242,-0.0564 -1.038,-0.101c-0.1473,1.3758 -0.2198,2.0637 -0.3671,3.4395c0.4395,0.047 0.6593,0.0704 1.1012,0.108c0.1117,0.0006 0.2195,0.0414 0.3039,0.115c0.0319,0.0407 0.055,0.0876 0.0679,0.1377c0.0128,0.0501 0.0152,0.1024 0.0069,0.1535l-0.1005,1.2208c0.0003,0.0515 -0.0103,0.1024 -0.0313,0.1494c-0.021,0.047 -0.0518,0.0889 -0.0903,0.1229c-0.0992,0.059 -0.216,0.0806 -0.3296,0.0611c-1.9943,-0.1785 -2.9902,-0.3052 -4.9705,-0.6433z" fill="white" id="svg_11"/>
  <path d="m73.2795,74.8204c-1.9394,0.0877 -3.882,0.0673 -5.8191,-0.061c-0.1151,0.0039 -0.2279,-0.0336 -0.318,-0.1057c-0.0334,-0.0394 -0.058,-0.0856 -0.0721,-0.1354c-0.0142,-0.0499 -0.0174,-0.1022 -0.0097,-0.1534c0.0351,-0.5517 0.0514,-0.8264 0.0865,-1.3781c0.0066,-0.1186 0.0376,-0.2345 0.0912,-0.3404c0.0608,-0.1063 0.14,-0.2009 0.2338,-0.2794c1.1689,-1.1481 1.7254,-1.7373 2.7844,-2.937c-0.9188,-0.0141 -1.3793,-0.0282 -2.2958,-0.0775c-0.1062,0.004 -0.2099,-0.033 -0.2899,-0.1033c-0.0312,-0.0406 -0.0539,-0.0871 -0.0668,-0.1367c-0.0128,-0.0496 -0.0156,-0.1014 -0.008,-0.1521l0.0748,-1.2443c-0.002,-0.0509 0.0064,-0.1017 0.0244,-0.1493c0.0181,-0.0476 0.0456,-0.0911 0.0808,-0.1277c0.0839,-0.0604 0.1878,-0.0857 0.2899,-0.0705c1.5879,0.0975 3.1798,0.1139 4.7694,0.0493c0.1022,-0.013 0.2055,0.0148 0.2875,0.0775c0.0683,0.0764 0.1036,0.1769 0.0982,0.2794c0.0234,0.6128 0.0351,0.9203 0.0608,1.5331c0.0076,0.1212 -0.01,0.2427 -0.0514,0.3568c-0.0464,0.1116 -0.113,0.2135 -0.1964,0.3006c-0.9656,1.1926 -1.4729,1.7795 -2.539,2.9276c1.0871,0 1.6365,0 2.719,-0.0376c0.1108,-0.0135 0.2227,0.0131 0.3156,0.0752c0.0363,0.0365 0.0646,0.0802 0.0831,0.1283c0.0185,0.0481 0.0269,0.0995 0.0245,0.151c0.021,0.4907 0.0327,0.7349 0.0514,1.2256c0.0072,0.0512 0.0033,0.1033 -0.0117,0.1528c-0.0149,0.0495 -0.0405,0.0951 -0.0748,0.1336c-0.0923,0.0706 -0.2068,0.1056 -0.3226,0.0986z" fill="white" id="svg_12"/>
  <path d="m80.9385,74.0785c-1.9175,0.3274 -3.8516,0.5477 -5.7934,0.6597c-0.1134,0.0177 -0.2294,-0.0056 -0.3273,-0.0658c-0.0384,-0.0348 -0.0688,-0.0776 -0.0889,-0.1255c-0.0202,-0.0479 -0.0298,-0.0996 -0.028,-0.1515c-0.0304,-0.5517 -0.0468,-0.8264 -0.0795,-1.3781c-0.0087,-0.118 0.008,-0.2366 0.0491,-0.3475c0.0458,-0.1139 0.1124,-0.2182 0.1964,-0.3075c1.0193,-1.2819 1.5033,-1.9346 2.4104,-3.2564c-0.9141,0.101 -1.3724,0.1409 -2.2912,0.2043c-0.1047,0.0169 -0.212,-0.0075 -0.2992,-0.0681c-0.0358,-0.0364 -0.0638,-0.0797 -0.0823,-0.1274c-0.0185,-0.0476 -0.0271,-0.0985 -0.0253,-0.1496c-0.0304,-0.4977 -0.0467,-0.7466 -0.0771,-1.2443c-0.0147,-0.101 0.0105,-0.2038 0.0701,-0.2865c0.076,-0.0712 0.1766,-0.11 0.2806,-0.108c1.59,-0.0949 3.1741,-0.272 4.7459,-0.5305c0.1007,-0.0249 0.2071,-0.0098 0.2969,0.0422c0.0387,0.0331 0.0705,0.0736 0.0934,0.1191c0.0229,0.0456 0.0364,0.0953 0.0399,0.1462c0.0959,0.6057 0.145,0.9086 0.2338,1.5143c0.0237,0.1193 0.0237,0.2422 0,0.3616c-0.0323,0.1163 -0.0862,0.2254 -0.159,0.3216c-0.8182,1.3006 -1.2531,1.9439 -2.1742,3.2141c1.0824,-0.1221 1.6225,-0.1949 2.7003,-0.3663c0.109,-0.0279 0.2243,-0.0154 0.3249,0.0352c0.0404,0.0316 0.0737,0.0713 0.0978,0.1166c0.0242,0.0453 0.0387,0.0951 0.0425,0.1464l0.1987,1.2091c0.0132,0.0501 0.0154,0.1025 0.0066,0.1535c-0.0089,0.0511 -0.0287,0.0996 -0.058,0.1423c-0.0837,0.0763 -0.1911,0.1211 -0.3039,0.1268z" fill="white" id="svg_13"/>
  <path d="m84.9667,72.9234c0.0156,0.0493 0.0205,0.1015 0.0145,0.1529c-0.0061,0.0514 -0.023,0.1009 -0.0496,0.1452c-0.0777,0.0852 -0.1829,0.1401 -0.2969,0.155c-0.678,0.1503 -1.0194,0.2207 -1.6997,0.3522c-0.1109,0.0314 -0.2294,0.0223 -0.3343,-0.0259c-0.0426,-0.0296 -0.0781,-0.0684 -0.1039,-0.1134c-0.0259,-0.0451 -0.0415,-0.0953 -0.0457,-0.1472l-0.5003,-2.674c-0.0381,-0.2375 -0.0467,-0.4788 -0.0258,-0.7185c0.0291,-0.3298 0.0783,-0.6575 0.1473,-0.9813c0.1964,-0.9884 0.2876,-1.4838 0.4536,-2.4745c0.0116,-0.11 0.0603,-0.2127 0.1379,-0.2912c0.0874,-0.0804 0.1963,-0.1335 0.3133,-0.1526c1.0965,-0.2347 1.6365,-0.3756 2.7283,-0.6714c0.1115,-0.0326 0.2299,-0.0326 0.3414,0c0.1051,0.0328 0.1954,0.1018 0.2548,0.1948c0.6055,0.8006 0.9165,1.1974 1.55,1.9815c0.2098,0.2558 0.4042,0.524 0.5822,0.803c0.1305,0.2016 0.2342,0.4194 0.3086,0.648c0.3203,1.04 0.4793,1.5588 0.7972,2.5989c0.0194,0.0481 0.0283,0.0999 0.0258,0.1518c-0.0024,0.0519 -0.016,0.1026 -0.0398,0.1487c-0.0715,0.091 -0.1724,0.1541 -0.2852,0.1784c-0.6874,0.2066 -1.0311,0.3053 -1.7231,0.4931c-0.116,0.039 -0.2416,0.039 -0.3577,0c-0.0461,-0.0227 -0.0865,-0.0557 -0.1181,-0.0963c-0.0316,-0.0407 -0.0535,-0.0881 -0.0642,-0.1385l-0.3507,-1.4087c-0.7879,0.2066 -1.183,0.3029 -1.9756,0.4837c0.1263,0.5611 0.1894,0.8428 0.3157,1.4063zm-0.4676,-4.9021c-0.0538,0.6574 -0.0818,0.986 -0.1473,1.6434c0.6803,-0.1573 1.0217,-0.2348 1.6973,-0.4179c-0.3577,-0.5517 -0.5354,-0.8311 -0.8861,-1.3875c-0.0323,-0.0443 -0.0738,-0.0811 -0.1215,-0.108c-0.0371,-0.0181 -0.0794,-0.0222 -0.1193,-0.0117l-0.2618,0.0633c-0.0411,0.0101 -0.0775,0.0341 -0.1029,0.0681c-0.0315,0.0453 -0.0538,0.0963 -0.0654,0.1503l0.007,0z" fill="white" id="svg_14"/>
  <path d="m71.851,22.2238l-3.6191,1.9111l0.6897,-4.0475l-2.9271,-2.8666l4.0469,-0.5893l1.8096,-3.6836l1.8095,3.6836l4.0469,0.5893l-2.9294,2.8666l0.6921,4.0475l-3.6191,-1.9111z" fill="#cccc1e" id="svg_15"/>
  <path d="m82.7597,26.5906l-2.6465,1.3969l0.505,-2.9581l-2.1392,-2.0942l2.9575,-0.432l1.3232,-2.6905l1.3209,2.6905l2.9598,0.432l-2.1415,2.0942l0.505,2.9581l-2.6442,-1.3969z" fill="#cccc1e" id="svg_16"/>
  <path d="m58.6955,26.5906l-2.6465,1.3969l0.505,-2.9581l-2.1392,-2.0942l2.9574,-0.432l1.3233,-2.6905l1.3209,2.6905l2.9575,0.432l-2.1392,2.0942l0.505,2.9581l-2.6442,-1.3969z" fill="#cccc1e" id="svg_17"/>
  <text xml:space="preserve" text-anchor="start" font-family="'Stick No Bills'" font-size="31" stroke-width="0" id="svg_5" y="58.49839" x="16.7487" fill="#ffffff">M</text>
  <text xml:space="preserve" text-anchor="start" font-family="'Stick No Bills'" font-size="31" stroke-width="0" id="svg_6" y="58.49839" x="37.2484" fill="#ffffff">A</text>
  <text xml:space="preserve" text-anchor="start" font-family="'Stick No Bills'" font-size="31" stroke-width="0" id="svg_7" y="58.49839" x="50.99819" fill="#ffffff">S</text>
  <text xml:space="preserve" text-anchor="start" font-family="'Stick No Bills'" font-size="31" stroke-width="0" id="svg_8" y="58.49839" x="65.71241" fill="#ffffff">S</text>
  <text xml:space="preserve" text-anchor="start" font-family="'Stick No Bills'" font-size="31" stroke-width="0" id="svg_9" y="58.49839" x="80.24232" fill="#ffffff">E</text>
  <text xml:space="preserve" text-anchor="start" font-family="'Stick No Bills'" font-size="31" stroke-width="0" id="svg_18" y="58.49839" x="94.13213" fill="#ffffff">T</text>
  <text xml:space="preserve" text-anchor="start" font-family="'Stick No Bills'" font-size="31" stroke-width="0" id="svg_19" y="58.49839" x="105.9982" fill="#ffffff">A</text>
  <text xml:space="preserve" text-anchor="start" font-family="'Stick No Bills'" font-size="31" stroke-width="0" id="svg_20" y="58.49839" x="119.33725" fill="#ffffff">S</text>
 </g>

</svg>